<?xml version="1.0" encoding="UTF-8" standalone="no"?>
<!-- Generator: Adobe Illustrator 19.0.0, SVG Export Plug-In . SVG Version: 6.00 Build 0)  -->

<svg
   xmlns:dc="http://purl.org/dc/elements/1.1/"
   xmlns:cc="http://creativecommons.org/ns#"
   xmlns:rdf="http://www.w3.org/1999/02/22-rdf-syntax-ns#"
   xmlns:svg="http://www.w3.org/2000/svg"
   xmlns="http://www.w3.org/2000/svg"
   xmlns:sodipodi="http://sodipodi.sourceforge.net/DTD/sodipodi-0.dtd"
   xmlns:inkscape="http://www.inkscape.org/namespaces/inkscape"
   version="1.1"
   id="Capa_1"
   x="0px"
   y="0px"
   viewBox="0 0 55.867 55.867"
   style="enable-background:new 0 0 55.867 55.867;"
   xml:space="preserve"
   sodipodi:docname="about_one.svg"
   inkscape:version="0.92.5 (2060ec1f9f, 2020-04-08)"><metadata
   id="metadata135"><rdf:RDF><cc:Work
       rdf:about=""><dc:format>image/svg+xml</dc:format><dc:type
         rdf:resource="http://purl.org/dc/dcmitype/StillImage" /></cc:Work></rdf:RDF></metadata><defs
   id="defs133" /><sodipodi:namedview
   pagecolor="#ffffff"
   bordercolor="#666666"
   borderopacity="1"
   objecttolerance="10"
   gridtolerance="10"
   guidetolerance="10"
   inkscape:pageopacity="0"
   inkscape:pageshadow="2"
   inkscape:window-width="1300"
   inkscape:window-height="704"
   id="namedview131"
   showgrid="false"
   inkscape:zoom="4.2243184"
   inkscape:cx="-15.268735"
   inkscape:cy="26.749877"
   inkscape:window-x="66"
   inkscape:window-y="27"
   inkscape:window-maximized="1"
   inkscape:current-layer="Capa_1" />
<path
   d="m 48.965088,21.140243 c -0.089,-0.273035 -0.325076,-0.472153 -0.609423,-0.513636 L 34.71151,18.643717 28.60973,6.2802575 C 28.483018,6.0223083 28.220543,5.859393 27.933933,5.859393 c -0.28661,0 -0.549839,0.1629153 -0.675796,0.4208645 L 21.155602,18.644471 7.5114479,20.627361 c -0.2843475,0.04148 -0.5196695,0.239847 -0.6094237,0.513636 -0.088246,0.272279 -0.015085,0.572466 0.190822,0.772339 l 9.8737218,9.624069 -2.331348,13.589848 c -0.04828,0.28284 0.06788,0.568695 0.299432,0.737645 0.23306,0.170457 0.541542,0.192331 0.794212,0.05733 l 12.205069,-6.415543 12.203561,6.415543 c 0.110119,0.05807 0.231551,0.08673 0.351475,0.08673 0.156127,0 0.3115,-0.04827 0.443491,-0.144059 0.232305,-0.168949 0.348458,-0.454805 0.299433,-0.737644 l -2.330594,-13.589094 9.873722,-9.624823 c 0.205152,-0.201382 0.279067,-0.500814 0.190067,-0.773093 z"
   id="path98"
   style="fill:#808080;fill-opacity:1;stroke-width:0.75423741"
   inkscape:connector-curvature="0" />
<g
   id="g100">
</g>
<g
   id="g102">
</g>
<g
   id="g104">
</g>
<g
   id="g106">
</g>
<g
   id="g108">
</g>
<g
   id="g110">
</g>
<g
   id="g112">
</g>
<g
   id="g114">
</g>
<g
   id="g116">
</g>
<g
   id="g118">
</g>
<g
   id="g120">
</g>
<g
   id="g122">
</g>
<g
   id="g124">
</g>
<g
   id="g126">
</g>
<g
   id="g128">
</g>
</svg>