<?xml version="1.0" encoding="UTF-8" standalone="no"?>
<!-- Generator: Adobe Illustrator 19.0.0, SVG Export Plug-In . SVG Version: 6.00 Build 0)  -->

<svg
   xmlns:dc="http://purl.org/dc/elements/1.1/"
   xmlns:cc="http://creativecommons.org/ns#"
   xmlns:rdf="http://www.w3.org/1999/02/22-rdf-syntax-ns#"
   xmlns:svg="http://www.w3.org/2000/svg"
   xmlns="http://www.w3.org/2000/svg"
   xmlns:sodipodi="http://sodipodi.sourceforge.net/DTD/sodipodi-0.dtd"
   xmlns:inkscape="http://www.inkscape.org/namespaces/inkscape"
   version="1.1"
   id="Layer_1"
   x="0px"
   y="0px"
   viewBox="0 0 511.999 511.999"
   style="enable-background:new 0 0 511.999 511.999;"
   xml:space="preserve"
   sodipodi:docname="about_three.svg"
   inkscape:version="0.92.5 (2060ec1f9f, 2020-04-08)"><metadata
   id="metadata67"><rdf:RDF><cc:Work
       rdf:about=""><dc:format>image/svg+xml</dc:format><dc:type
         rdf:resource="http://purl.org/dc/dcmitype/StillImage" /></cc:Work></rdf:RDF></metadata><defs
   id="defs65" /><sodipodi:namedview
   pagecolor="#ffffff"
   bordercolor="#666666"
   borderopacity="1"
   objecttolerance="10"
   gridtolerance="10"
   guidetolerance="10"
   inkscape:pageopacity="0"
   inkscape:pageshadow="2"
   inkscape:window-width="1300"
   inkscape:window-height="704"
   id="namedview63"
   showgrid="false"
   inkscape:zoom="0.46093841"
   inkscape:cx="-139.93192"
   inkscape:cy="245.15207"
   inkscape:window-x="66"
   inkscape:window-y="27"
   inkscape:window-maximized="1"
   inkscape:current-layer="Layer_1" />
<g
   id="g6"
   style="fill:#808080;fill-opacity:1"
   transform="matrix(0.68643701,0,0,0.68643701,80.271969,100.27179)">
	<g
   id="g4"
   style="fill:#808080;fill-opacity:1">
		<rect
   x="239.30099"
   y="200.345"
   width="139.129"
   height="66.781998"
   id="rect2"
   style="fill:#808080;fill-opacity:1" />
	</g>
</g>
<g
   id="g12"
   style="fill:#808080;fill-opacity:1"
   transform="matrix(0.68643701,0,0,0.68643701,80.271969,100.27179)">
	<g
   id="g10"
   style="fill:#808080;fill-opacity:1">
		<rect
   x="239.30099"
   y="100.173"
   width="139.129"
   height="66.781998"
   id="rect8"
   style="fill:#808080;fill-opacity:1" />
	</g>
</g>
<g
   id="g18"
   style="fill:#808080;fill-opacity:1"
   transform="matrix(0.68643701,0,0,0.68643701,80.271969,100.27179)">
	<g
   id="g16"
   style="fill:#808080;fill-opacity:1">
		<rect
   x="133.563"
   y="100.173"
   width="72.347"
   height="166.95399"
   id="rect14"
   style="fill:#808080;fill-opacity:1" />
	</g>
</g>
<g
   id="g24"
   style="fill:#808080;fill-opacity:1"
   transform="matrix(0.68643701,0,0,0.68643701,80.271969,100.27179)">
	<g
   id="g22"
   style="fill:#808080;fill-opacity:1">
		<path
   d="M 361.459,479.461 272.697,449.873 V 400.69 h -33.393 v 49.185 l -88.757,29.585 c -8.75,2.913 -13.468,12.369 -10.554,21.114 2.921,8.787 12.428,13.474 21.12,10.559 l 94.89,-31.63 94.89,31.63 c 8.697,2.917 18.201,-1.779 21.12,-10.559 2.913,-8.743 -1.804,-18.201 -10.554,-21.113 z"
   id="path20"
   style="fill:#808080;fill-opacity:1"
   inkscape:connector-curvature="0" />
	</g>
</g>
<g
   id="g30"
   style="fill:#808080;fill-opacity:1"
   transform="matrix(0.68643701,0,0,0.68643701,80.271969,100.27179)">
	<g
   id="g28"
   style="fill:#808080;fill-opacity:1">
		<path
   d="M 495.301,333.909 H 478.606 V 33.391 h 16.695 c 9.217,0 16.695,-7.473 16.695,-16.695 C 511.996,7.473 504.518,0 495.301,0 280.639,0 235.846,0 16.698,0 7.481,0 0.003,7.473 0.003,16.695 c 0,9.223 7.478,16.695 16.695,16.695 H 33.393 V 333.908 H 16.698 c -9.217,0 -16.695,7.473 -16.695,16.695 0,9.223 7.478,16.695 16.695,16.695 56.3,0 426.674,0 478.602,0 9.217,0 16.695,-7.473 16.695,-16.695 10e-4,-9.221 -7.477,-16.694 -16.694,-16.694 z m -83.477,-50.087 c 0,9.223 -7.478,16.695 -16.695,16.695 H 116.871 c -9.217,0 -16.695,-7.473 -16.695,-16.695 V 83.477 c 0,-9.223 7.478,-16.695 16.695,-16.695 h 278.257 c 9.217,0 16.695,7.473 16.695,16.695 v 200.345 z"
   id="path26"
   style="fill:#808080;fill-opacity:1"
   inkscape:connector-curvature="0" />
	</g>
</g>
<g
   id="g32">
</g>
<g
   id="g34">
</g>
<g
   id="g36">
</g>
<g
   id="g38">
</g>
<g
   id="g40">
</g>
<g
   id="g42">
</g>
<g
   id="g44">
</g>
<g
   id="g46">
</g>
<g
   id="g48">
</g>
<g
   id="g50">
</g>
<g
   id="g52">
</g>
<g
   id="g54">
</g>
<g
   id="g56">
</g>
<g
   id="g58">
</g>
<g
   id="g60">
</g>
</svg>